<svg width="16" height="16" viewBox="0 0 16 16" fill="none" xmlns="http://www.w3.org/2000/svg">
<path d="M5.95609 14.9982C5.72295 14.9987 5.49702 14.9175 5.3175 14.7687C5.21647 14.6849 5.13295 14.5821 5.07174 14.466C5.01052 14.3499 4.97281 14.2229 4.96076 14.0922C4.94871 13.9615 4.96256 13.8297 5.00152 13.7044C5.04048 13.5791 5.10377 13.4626 5.18779 13.3618L9.65788 8.01368L5.34744 2.65557C5.26455 2.5535 5.20266 2.43607 5.16531 2.31001C5.12796 2.18395 5.11589 2.05175 5.1298 1.92101C5.14371 1.79027 5.18332 1.66357 5.24635 1.54819C5.30939 1.43281 5.3946 1.33103 5.4971 1.24869C5.60034 1.15785 5.72124 1.08934 5.85221 1.04744C5.98318 1.00554 6.1214 0.991171 6.25819 1.00522C6.39498 1.01928 6.52739 1.06145 6.64711 1.12911C6.76682 1.19676 6.87126 1.28843 6.95387 1.39835L11.7732 7.38508C11.9199 7.56362 12.0002 7.78756 12.0002 8.01867C12.0002 8.24979 11.9199 8.47373 11.7732 8.65227L6.78425 14.639C6.68415 14.7597 6.557 14.8552 6.41311 14.9176C6.26922 14.98 6.11265 15.0076 5.95609 14.9982Z" fill="#71717A"/>
</svg>
